<?xml version="1.0" encoding="UTF-8" standalone="no"?>
<!-- Created with Inkscape (http://www.inkscape.org/) -->

<svg
   width="17.870781mm"
   height="39.920589mm"
   viewBox="0 0 17.870781 39.920589"
   version="1.1"
   id="svg1"
   sodipodi:docname="hunter.svg"
   inkscape:version="1.3 (0e150ed6c4, 2023-07-21)"
   xmlns:inkscape="http://www.inkscape.org/namespaces/inkscape"
   xmlns:sodipodi="http://sodipodi.sourceforge.net/DTD/sodipodi-0.dtd"
   xmlns:xlink="http://www.w3.org/1999/xlink"
   xmlns="http://www.w3.org/2000/svg"
   xmlns:svg="http://www.w3.org/2000/svg">
  <sodipodi:namedview
     id="namedview1"
     pagecolor="#505050"
     bordercolor="#eeeeee"
     borderopacity="1"
     inkscape:showpageshadow="0"
     inkscape:pageopacity="0"
     inkscape:pagecheckerboard="0"
     inkscape:deskcolor="#505050"
     inkscape:document-units="mm"
     inkscape:zoom="4.2251184"
     inkscape:cx="32.543467"
     inkscape:cy="82.482896"
     inkscape:window-width="1920"
     inkscape:window-height="1001"
     inkscape:window-x="-9"
     inkscape:window-y="-9"
     inkscape:window-maximized="1"
     inkscape:current-layer="g113" />
  <defs
     id="defs1">
    <clipPath
       clipPathUnits="userSpaceOnUse"
       id="clipPath104">
      <path
         id="path104"
         style="stroke-width:0.1;stroke-linecap:square;paint-order:markers fill stroke;stop-color:#000000"
         d="M 438.25066,553.76374 H 1298.1212 V 755.15928 H 438.25066 Z"
         sodipodi:nodetypes="ccccc" />
    </clipPath>
    <clipPath
       clipPathUnits="userSpaceOnUse"
       id="clipPath102">
      <path
         id="path102"
         style="stroke-width:0.1;stroke-linecap:square;paint-order:markers fill stroke;stop-color:#000000"
         d="M 438.25066,553.76374 H 1298.1212 V 755.15928 H 438.25066 Z"
         sodipodi:nodetypes="ccccc" />
    </clipPath>
    <clipPath
       clipPathUnits="userSpaceOnUse"
       id="clipPath5">
      <path
         id="path94"
         style="stroke-width:0.1;stroke-linecap:square;paint-order:markers fill stroke;stop-color:#000000"
         d="M 438.25066,553.76374 H 1298.1212 V 755.15928 H 438.25066 Z"
         sodipodi:nodetypes="ccccc" />
    </clipPath>
    <linearGradient
       id="swatch28"
       inkscape:swatch="solid">
      <stop
         style="stop-color:#8c7f71;stop-opacity:1;"
         offset="0"
         id="stop28" />
    </linearGradient>
    <linearGradient
       id="linearGradient13"
       inkscape:collect="always">
      <stop
         style="stop-color:#2f9eff;stop-opacity:1;"
         offset="0"
         id="stop14" />
      <stop
         style="stop-color:#000000;stop-opacity:1;"
         offset="0.84875852"
         id="stop15" />
    </linearGradient>
    <inkscape:path-effect
       effect="spiro"
       id="path-effect4"
       is_visible="true"
       lpeversion="1" />
    <radialGradient
       inkscape:collect="always"
       xlink:href="#linearGradient13"
       id="radialGradient15"
       cx="50.326248"
       cy="62.075218"
       fx="50.326248"
       fy="62.075218"
       r="0.80300701"
       gradientTransform="matrix(2.7076491,0,0,2.7291678,-36.242642,-126.66648)"
       gradientUnits="userSpaceOnUse" />
  </defs>
  <g
     inkscape:groupmode="layer"
     id="g113"
     inkscape:label="leg.R"
     transform="matrix(0.27778678,0.08104431,-0.08104431,0.27778678,-13.159986,-12.159896)"
     inkscape:transform-center-x="2.9858281"
     inkscape:transform-center-y="9.2928618"
     sodipodi:insensitive="true">
    <path
       style="fill:#443018;fill-opacity:1;stroke:#443018;stroke-width:2;stroke-linecap:round;stroke-linejoin:round;stroke-dasharray:none;stroke-opacity:1;paint-order:normal"
       d="m 108.9142,126.50913 -5.46029,-35.622377 16.8295,-1.884027 -1.92353,36.603514 z"
       id="path110"
       sodipodi:nodetypes="ccccc" />
    <circle
       id="circle110"
       style="fill:#563d1f;stroke:#563d1f;stroke-width:0.264583"
       cx="112.5171"
       cy="127.82738"
       r="0.045607749" />
    <path
       style="fill:#563d1f;fill-opacity:1;stroke:#563d1f;stroke-width:2;stroke-linecap:round;stroke-linejoin:round;stroke-dasharray:none;stroke-opacity:1;paint-order:normal"
       d="m 107.44387,126.64968 c 0.66886,5.5001 0.76953,11.36337 0.36236,13.8608 -0.33924,2.0808 -10.035992,3.65803 -11.261065,5.8969 -0.655704,1.19832 -0.670162,3.22136 0.907665,3.27408 4.23227,0.14142 19.7039,0.0924 21.6323,-0.42871 3.34379,-0.90355 -1.3164,-11.30414 0.67944,-23.78078"
       id="path111"
       sodipodi:nodetypes="cssssc" />
    <path
       style="mix-blend-mode:normal;fill:none;fill-opacity:1;stroke:#835e2f;stroke-width:4;stroke-linecap:round;stroke-linejoin:round;stroke-dasharray:none;stroke-opacity:1;paint-order:normal"
       d="m 96.522466,149.28344 c 4.764574,0.45874 18.648114,0.28896 23.246054,-0.45676"
       id="path112"
       sodipodi:nodetypes="cc" />
    <path
       style="fill:none;fill-opacity:1;stroke:#936a37;stroke-width:4;stroke-linecap:round;stroke-linejoin:round;stroke-dasharray:none;stroke-opacity:1;paint-order:normal"
       d="m 107.44387,126.64968 12.3207,-1.17771"
       id="path113" />
  </g>
  <g
     inkscape:groupmode="layer"
     id="layer6"
     inkscape:label="leg.L"
     transform="matrix(0.28612439,-0.04320312,0.04320312,0.28612439,-23.406425,0.79829308)"
     style="display:inline"
     sodipodi:insensitive="true">
    <path
       style="fill:#443018;fill-opacity:1;stroke:#443018;stroke-width:2;stroke-linecap:round;stroke-linejoin:round;stroke-dasharray:none;stroke-opacity:1;paint-order:normal"
       d="m 108.9142,126.50913 -5.46029,-35.622377 16.8295,-1.884027 -1.92353,36.603514 z"
       id="path109"
       sodipodi:nodetypes="ccccc" />
    <circle
       id="path24"
       style="fill:#563d1f;stroke:#563d1f;stroke-width:0.264583"
       cx="112.5171"
       cy="127.82738"
       r="0.045607749" />
    <path
       style="fill:#563d1f;fill-opacity:1;stroke:#563d1f;stroke-width:2;stroke-linecap:round;stroke-linejoin:round;stroke-dasharray:none;stroke-opacity:1;paint-order:normal"
       d="m 107.44387,126.64968 c 0.66886,5.5001 0.76953,11.36337 0.36236,13.8608 -0.33924,2.0808 -10.035992,3.65803 -11.261065,5.8969 -0.655704,1.19832 -0.670162,3.22136 0.907665,3.27408 4.23227,0.14142 19.7039,0.0924 21.6323,-0.42871 3.34379,-0.90355 -1.3164,-11.30414 0.67944,-23.78078"
       id="path25"
       sodipodi:nodetypes="cssssc" />
    <path
       style="mix-blend-mode:normal;fill:none;fill-opacity:1;stroke:#835e2f;stroke-width:4;stroke-linecap:round;stroke-linejoin:round;stroke-dasharray:none;stroke-opacity:1;paint-order:normal"
       d="m 96.522466,149.28344 c 4.764574,0.45874 18.648114,0.28896 23.246054,-0.45676"
       id="path26"
       sodipodi:nodetypes="cc" />
    <path
       style="fill:none;fill-opacity:1;stroke:#936a37;stroke-width:4;stroke-linecap:round;stroke-linejoin:round;stroke-dasharray:none;stroke-opacity:1;paint-order:normal"
       d="m 107.44387,126.64968 12.3207,-1.17771"
       id="path108" />
  </g>
  <g
     inkscape:groupmode="layer"
     id="g22"
     inkscape:label="Arm.R"
     sodipodi:insensitive="true"
     transform="matrix(0.28936771,0,0,0.28936771,-22.049842,-8.0541167)">
    <ellipse
       style="fill:#563d1f;fill-opacity:1;stroke:#563d1f;stroke-width:2;stroke-linecap:round;stroke-linejoin:round;stroke-dasharray:none;stroke-opacity:1;paint-order:normal"
       id="ellipse20"
       transform="rotate(5.0548382)"
       ry="3.2436023"
       rx="5.254178"
       cy="70.655396"
       cx="89.013367" />
    <path
       style="fill:#563d1f;fill-opacity:1;stroke:#563d1f;stroke-width:2;stroke-linecap:round;stroke-linejoin:round;stroke-dasharray:none;stroke-opacity:1;paint-order:normal"
       d="m 124.88813,70.33605 c -0.97609,2.321299 -12.67259,10.701209 -15.84849,11.68088 -3.18292,0.981838 -15.386662,1.627401 -22.535983,0.111838 l 0.973291,-6.531999 c 6.839362,-0.567974 11.35981,-0.952391 19.810572,-2.636245 0,0 8.31905,-9.514427 9.98112,-9.88761 4.04013,-0.907133 9.03916,3.886913 7.61949,7.263136 z"
       id="path21"
       sodipodi:nodetypes="sscccss"
       inkscape:transform-center-x="12.163536"
       inkscape:transform-center-y="4.1789067" />
    <path
       style="fill:none;fill-opacity:1;stroke:#936a37;stroke-width:4;stroke-linecap:round;stroke-linejoin:round;stroke-dasharray:none;stroke-opacity:1;paint-order:normal"
       d="m 87.476948,75.596769 -0.973291,6.531999"
       id="path22"
       inkscape:transform-center-x="27.180069"
       inkscape:transform-center-y="-3.359937"
       sodipodi:nodetypes="cc" />
  </g>
  <g
     inkscape:groupmode="layer"
     id="layer4"
     inkscape:label="Body"
     style="display:inline"
     sodipodi:insensitive="true"
     transform="matrix(0.28936771,0,0,0.28936771,-22.049842,-8.0541167)">
    <path
       style="fill:#443018;fill-opacity:1;stroke:#443018;stroke-width:1.5;stroke-linecap:round;stroke-linejoin:round;stroke-dasharray:none;stroke-opacity:1;paint-order:normal"
       d="m 100.9196,57.389125 2.30066,5.059744 c 0,0 -4.525014,7.660785 -5.641044,14.220864 -2.005834,11.790394 -0.90893,29.156797 -0.90893,29.156797 12.434644,5.22493 25.189574,5.43624 38.339214,-0.53095 0,0 0.44427,-34.575485 -7.14835,-42.60488 -3.52817,-3.731122 -10.0769,-4.209164 -10.0769,-4.209164 l -1.01898,-3.976048 z"
       id="path15"
       sodipodi:nodetypes="ccsccsccc" />
    <path
       style="fill:#936a37;fill-opacity:1;stroke:#835e2f;stroke-width:4;stroke-linecap:round;stroke-linejoin:round;stroke-dasharray:none;stroke-opacity:1;paint-order:normal"
       d="m 100.9196,57.389124 15.84567,-2.883636"
       id="path16"
       sodipodi:nodetypes="cc" />
    <path
       style="fill:none;fill-opacity:1;stroke:#835e2f;stroke-width:4;stroke-linecap:round;stroke-linejoin:round;stroke-dasharray:none;stroke-opacity:1;paint-order:normal"
       d="m 96.670285,105.82653 c 5.639355,4.97755 31.307495,5.67995 38.339215,-0.53095"
       id="path17"
       sodipodi:nodetypes="cc" />
  </g>
  <g
     inkscape:groupmode="layer"
     id="layer5"
     inkscape:label="Arm.L"
     sodipodi:insensitive="true"
     transform="matrix(0.28936771,0,0,0.28936771,-22.049842,-8.0541167)">
    <ellipse
       style="fill:#563d1f;fill-opacity:1;stroke:#563d1f;stroke-width:2;stroke-linecap:round;stroke-linejoin:round;stroke-dasharray:none;stroke-opacity:1;paint-order:normal"
       id="path20"
       cy="152.23244"
       cx="9.0009699"
       rx="5.254178"
       ry="3.2436023"
       transform="rotate(-46.074858)" />
    <path
       style="fill:#563d1f;fill-opacity:1;stroke:#563d1f;stroke-width:2;stroke-linecap:round;stroke-linejoin:round;stroke-dasharray:none;stroke-opacity:1;paint-order:normal"
       d="m 121.31771,62.892934 c 2.4171,0.706261 12.07064,11.375856 13.40451,14.420016 1.33682,3.050884 -7.49291,15.457041 -12.76478,20.518375 l -4.85554,-4.476387 c 3.37437,-5.976047 5.03579,-8.62845 8.82136,-13.273107 0,0 -10.39731,-7.185184 -10.95676,-8.794145 -1.35991,-3.911034 2.83565,-9.421974 6.35121,-8.394752 z"
       id="path18"
       sodipodi:nodetypes="sscccss" />
    <path
       style="fill:none;fill-opacity:1;stroke:#936a37;stroke-width:4;stroke-linecap:round;stroke-linejoin:round;stroke-dasharray:none;stroke-opacity:1;paint-order:normal"
       d="m 117.1019,93.354937 4.85554,4.476387"
       id="path19" />
  </g>
  <g
     inkscape:groupmode="layer"
     id="layer2"
     inkscape:label="Head"
     inkscape:highlight-color="#e5db26"
     sodipodi:insensitive="true"
     transform="matrix(0.28936771,0,0,0.28936771,-22.049842,-8.0541167)">
    <path
       style="fill:#cca170;fill-opacity:1;stroke:#cca170;stroke-width:1;stroke-linecap:round;stroke-linejoin:round;stroke-dasharray:none;stroke-opacity:1;paint-order:normal"
       d="m 103.31315,54.899801 c 0,0 -6.717783,1.123865 -8.144487,0.617585 -1.463447,-0.51932 0.0676,-6.545213 0.0676,-6.545213 -0.812369,0.130207 -2.595284,0.111182 -3.03558,-0.171215 0.315992,-1.260689 1.382752,-3.465567 3.42692,-6.00644 L 93.811637,40.02149 110.91668,38.781433 v 0"
       id="path5"
       sodipodi:nodetypes="cscccccc" />
    <path
       style="fill:#000000;fill-opacity:1;stroke:#000000;stroke-width:1;stroke-linecap:round;stroke-linejoin:round;stroke-dasharray:none;stroke-opacity:1;paint-order:normal"
       d="m 93.948262,50.025008 c -0.452043,0.427457 -0.891747,0.875481 -0.911811,2.022904 0.855742,0.201781 3.354632,0.191886 4.605382,-0.03363 -0.03713,-0.78249 -0.20586,-1.491097 -0.805393,-2.021058 z"
       id="path6"
       sodipodi:nodetypes="ccccc" />
  </g>
  <g
     id="layer3"
     inkscape:label="Eye"
     style="fill:#f9f9f9"
     inkscape:groupmode="layer"
     sodipodi:insensitive="true"
     transform="matrix(0.28936771,0,0,0.28936771,-22.049842,-8.0541167)">
    <ellipse
       style="display:inline;fill:#f9f9f9;fill-opacity:1;stroke:#ffffff;stroke-width:1;stroke-linecap:round;stroke-linejoin:round;stroke-dasharray:none;stroke-opacity:1;paint-order:normal"
       id="path7"
       cx="100.02318"
       cy="42.794518"
       rx="1.7084267"
       ry="0.79042065" />
    <ellipse
       style="fill:#000000;fill-opacity:1;stroke:url(#radialGradient15);stroke-width:0.744;stroke-linecap:round;stroke-linejoin:round;stroke-dasharray:none;paint-order:normal"
       id="path8"
       cx="100.02318"
       cy="42.747223"
       rx="0.8204366"
       ry="0.83771628" />
  </g>
  <g
     inkscape:label="Hat"
     inkscape:groupmode="layer"
     id="layer1"
     style="display:inline"
     sodipodi:insensitive="true"
     transform="matrix(0.28936771,0,0,0.28936771,-22.049842,-8.0541167)">
    <path
       style="fill:#563d1f;fill-opacity:1;stroke:#563d1f;stroke-width:1.5;stroke-linecap:round;stroke-linejoin:round;stroke-dasharray:none;stroke-opacity:1;paint-order:normal"
       d="m 118.52372,52.633585 c 0,0 3.47435,-18.015971 -2.22315,-21.797983 -7.93283,-5.265829 -19.46413,0.478284 -19.46413,0.478284 l 7.08724,10.271268 -0.0921,17.475835 9.53585,0.348824 0.18516,-6.366592 4.97113,-0.409636"
       id="path4"
       sodipodi:nodetypes="cscccccc" />
    <path
       style="fill:none;stroke:#936a37;stroke-width:2;stroke-linecap:round;stroke-linejoin:round;stroke-dasharray:none;stroke-opacity:1;paint-order:normal;image-rendering:auto"
       d="m 103.92368,41.585155 c 0,0 -1.3177,16.024239 -0.0921,17.475834 1.10494,1.30868 8.60663,1.702701 9.53585,0.348825 0.66985,-0.975988 -0.52215,-5.96832 0.18516,-6.366593 1.0349,-0.582732 4.97113,-0.409635 4.97113,-0.409635"
       id="path2"
       sodipodi:nodetypes="csssc" />
    <rect
       style="fill:#936a37;fill-opacity:1;stroke:#936a37;stroke-width:2;stroke-dasharray:none;stroke-opacity:1"
       id="rect3"
       width="7.5916457"
       height="5.6474438"
       x="107.12086"
       y="35.95771"
       ry="2.2682366" />
    <path
       style="fill:#936a37;fill-opacity:1;stroke:#936a37;stroke-width:2;stroke-linecap:round;stroke-linejoin:round;stroke-dasharray:none;stroke-opacity:1;paint-order:normal"
       d="m 103.92368,41.585154 c 0,0 0.56841,-7.4722 -1.39837,-9.410732 -2.731558,-2.692337 -10.237739,-2.144717 -11.769426,-1.599826 -1.058729,0.376638 -1.671455,9.153189 -0.251695,10.510559 1.271633,1.215752 13.419491,0.499999 13.419491,0.499999 z"
       id="path3"
       sodipodi:nodetypes="csssc" />
  </g>
</svg>
